<mxfile host="app.diagrams.net" modified="2020-09-03T01:55:41.721Z" agent="5.0 (Windows NT 10.0; Win64; x64) AppleWebKit/537.36 (KHTML, like Gecko) Chrome/84.0.4147.125 Safari/537.36" etag="XBZQAlb7iDcpVHU0YJik" version="13.6.2" type="github">
  <diagram id="SorV3DhM2XrlsTtJBnTN" name="Page-1">
    <mxGraphModel dx="1422" dy="713" grid="1" gridSize="10" guides="1" tooltips="1" connect="1" arrows="1" fold="1" page="1" pageScale="1" pageWidth="850" pageHeight="1100" math="0" shadow="0">
      <root>
        <mxCell id="0" />
        <mxCell id="1" parent="0" />
        <mxCell id="CBPnCcmBKnOUTYON7uXT-25" value="" style="rounded=0;whiteSpace=wrap;html=1;fillColor=none;fontSize=12;" parent="1" vertex="1">
          <mxGeometry x="630" y="243" width="220" height="372" as="geometry" />
        </mxCell>
        <mxCell id="CBPnCcmBKnOUTYON7uXT-23" value="" style="rounded=0;whiteSpace=wrap;html=1;fontSize=12;fillColor=none;align=left;" parent="1" vertex="1">
          <mxGeometry x="50" y="243" width="460" height="377" as="geometry" />
        </mxCell>
        <mxCell id="CBPnCcmBKnOUTYON7uXT-1" value="" style="aspect=fixed;html=1;points=[];align=center;image;fontSize=12;image=img/lib/mscae/Cache_Redis_Product.svg;" parent="1" vertex="1">
          <mxGeometry x="215" y="522" width="50" height="42" as="geometry" />
        </mxCell>
        <mxCell id="CBPnCcmBKnOUTYON7uXT-20" style="edgeStyle=orthogonalEdgeStyle;curved=1;rounded=0;orthogonalLoop=1;jettySize=auto;html=1;fontSize=12;dashed=1;" parent="1" source="CBPnCcmBKnOUTYON7uXT-2" target="CBPnCcmBKnOUTYON7uXT-1" edge="1">
          <mxGeometry relative="1" as="geometry" />
        </mxCell>
        <mxCell id="CBPnCcmBKnOUTYON7uXT-21" style="edgeStyle=orthogonalEdgeStyle;curved=1;rounded=0;orthogonalLoop=1;jettySize=auto;html=1;entryX=0;entryY=0.5;entryDx=0;entryDy=0;entryPerimeter=0;fontSize=12;dashed=1;" parent="1" source="CBPnCcmBKnOUTYON7uXT-2" target="CBPnCcmBKnOUTYON7uXT-12" edge="1">
          <mxGeometry relative="1" as="geometry" />
        </mxCell>
        <mxCell id="CBPnCcmBKnOUTYON7uXT-2" value="Picking Server" style="aspect=fixed;pointerEvents=1;shadow=0;dashed=0;html=1;strokeColor=none;labelPosition=center;verticalLabelPosition=bottom;verticalAlign=top;align=center;shape=mxgraph.mscae.enterprise.cluster_server;fillColor=#666666;" parent="1" vertex="1">
          <mxGeometry x="220" y="382" width="40" height="50" as="geometry" />
        </mxCell>
        <mxCell id="CBPnCcmBKnOUTYON7uXT-3" value="二期方案" style="text;html=1;strokeColor=none;fillColor=none;align=center;verticalAlign=middle;whiteSpace=wrap;rounded=0;fontSize=24;" parent="1" vertex="1">
          <mxGeometry x="10" y="10" width="140" height="20" as="geometry" />
        </mxCell>
        <mxCell id="CBPnCcmBKnOUTYON7uXT-19" style="edgeStyle=orthogonalEdgeStyle;curved=1;rounded=0;orthogonalLoop=1;jettySize=auto;html=1;entryX=0.5;entryY=0;entryDx=0;entryDy=0;entryPerimeter=0;fontSize=12;dashed=1;" parent="1" source="CBPnCcmBKnOUTYON7uXT-4" target="CBPnCcmBKnOUTYON7uXT-2" edge="1">
          <mxGeometry relative="1" as="geometry" />
        </mxCell>
        <mxCell id="CBPnCcmBKnOUTYON7uXT-4" value="" style="aspect=fixed;pointerEvents=1;shadow=0;dashed=0;html=1;strokeColor=none;labelPosition=center;verticalLabelPosition=bottom;verticalAlign=top;align=center;shape=mxgraph.mscae.enterprise.firewall;fillColor=#666666;" parent="1" vertex="1">
          <mxGeometry x="215" y="230" width="50" height="44" as="geometry" />
        </mxCell>
        <mxCell id="CBPnCcmBKnOUTYON7uXT-5" value="https://aloha-c.walmartmobile.cn/" style="text;html=1;strokeColor=none;fillColor=none;align=center;verticalAlign=middle;whiteSpace=wrap;rounded=0;" parent="1" vertex="1">
          <mxGeometry x="300" y="248" width="190" height="8" as="geometry" />
        </mxCell>
        <mxCell id="CBPnCcmBKnOUTYON7uXT-11" value="" style="shape=image;html=1;verticalAlign=top;verticalLabelPosition=bottom;labelBackgroundColor=#ffffff;imageAspect=0;aspect=fixed;image=https://cdn1.iconfinder.com/data/icons/ios-11-glyphs/30/print-128.png;fillColor=#666666;fontSize=24;" parent="1" vertex="1">
          <mxGeometry x="708" y="511" width="64" height="64" as="geometry" />
        </mxCell>
        <mxCell id="CBPnCcmBKnOUTYON7uXT-22" style="edgeStyle=orthogonalEdgeStyle;curved=1;rounded=0;orthogonalLoop=1;jettySize=auto;html=1;entryX=0;entryY=0.5;entryDx=0;entryDy=0;fontSize=12;dashed=1;" parent="1" source="CBPnCcmBKnOUTYON7uXT-12" target="CBPnCcmBKnOUTYON7uXT-11" edge="1">
          <mxGeometry relative="1" as="geometry" />
        </mxCell>
        <mxCell id="CBPnCcmBKnOUTYON7uXT-12" value="Cups Server" style="aspect=fixed;pointerEvents=1;shadow=0;dashed=0;html=1;strokeColor=none;labelPosition=center;verticalLabelPosition=bottom;verticalAlign=top;align=center;shape=mxgraph.mscae.enterprise.cluster_server;fillColor=#666666;" parent="1" vertex="1">
          <mxGeometry x="405" y="518" width="40" height="50" as="geometry" />
        </mxCell>
        <mxCell id="CBPnCcmBKnOUTYON7uXT-28" style="edgeStyle=orthogonalEdgeStyle;curved=1;rounded=0;orthogonalLoop=1;jettySize=auto;html=1;entryX=0.5;entryY=0;entryDx=0;entryDy=0;entryPerimeter=0;dashed=1;fontSize=12;" parent="1" source="CBPnCcmBKnOUTYON7uXT-16" target="CBPnCcmBKnOUTYON7uXT-4" edge="1">
          <mxGeometry relative="1" as="geometry">
            <Array as="points">
              <mxPoint x="740" y="210" />
              <mxPoint x="240" y="210" />
            </Array>
          </mxGeometry>
        </mxCell>
        <mxCell id="CBPnCcmBKnOUTYON7uXT-16" value="OFS" style="pointerEvents=1;shadow=0;dashed=0;html=1;strokeColor=none;fillColor=#505050;labelPosition=center;verticalLabelPosition=bottom;verticalAlign=top;outlineConnect=0;align=center;shape=mxgraph.office.devices.cell_phone_android_proportional;fontSize=12;" parent="1" vertex="1">
          <mxGeometry x="724.5" y="382" width="31" height="47" as="geometry" />
        </mxCell>
        <mxCell id="CBPnCcmBKnOUTYON7uXT-24" value="HO" style="text;html=1;strokeColor=none;fillColor=none;align=center;verticalAlign=middle;whiteSpace=wrap;rounded=0;fontSize=12;" parent="1" vertex="1">
          <mxGeometry x="60" y="257" width="40" height="20" as="geometry" />
        </mxCell>
        <mxCell id="CBPnCcmBKnOUTYON7uXT-29" value="Store" style="text;html=1;strokeColor=none;fillColor=none;align=center;verticalAlign=middle;whiteSpace=wrap;rounded=0;fontSize=12;" parent="1" vertex="1">
          <mxGeometry x="810" y="248" width="40" height="20" as="geometry" />
        </mxCell>
        <mxCell id="CBPnCcmBKnOUTYON7uXT-30" value="" style="rounded=0;whiteSpace=wrap;html=1;fillColor=none;fontSize=12;" parent="1" vertex="1">
          <mxGeometry x="630" y="763" width="220" height="372" as="geometry" />
        </mxCell>
        <mxCell id="CBPnCcmBKnOUTYON7uXT-31" value="" style="rounded=0;whiteSpace=wrap;html=1;fontSize=12;fillColor=none;align=left;" parent="1" vertex="1">
          <mxGeometry x="50" y="763" width="460" height="377" as="geometry" />
        </mxCell>
        <mxCell id="CBPnCcmBKnOUTYON7uXT-32" value="" style="aspect=fixed;html=1;points=[];align=center;image;fontSize=12;image=img/lib/mscae/Cache_Redis_Product.svg;" parent="1" vertex="1">
          <mxGeometry x="215" y="1042" width="50" height="42" as="geometry" />
        </mxCell>
        <mxCell id="CBPnCcmBKnOUTYON7uXT-33" style="edgeStyle=orthogonalEdgeStyle;curved=1;rounded=0;orthogonalLoop=1;jettySize=auto;html=1;fontSize=12;dashed=1;" parent="1" source="CBPnCcmBKnOUTYON7uXT-35" target="CBPnCcmBKnOUTYON7uXT-32" edge="1">
          <mxGeometry relative="1" as="geometry" />
        </mxCell>
        <mxCell id="CBPnCcmBKnOUTYON7uXT-35" value="Picking Server" style="aspect=fixed;pointerEvents=1;shadow=0;dashed=0;html=1;strokeColor=none;labelPosition=center;verticalLabelPosition=bottom;verticalAlign=top;align=center;shape=mxgraph.mscae.enterprise.cluster_server;fillColor=#666666;" parent="1" vertex="1">
          <mxGeometry x="220" y="902" width="40" height="50" as="geometry" />
        </mxCell>
        <mxCell id="CBPnCcmBKnOUTYON7uXT-36" value="三期方案" style="text;html=1;strokeColor=none;fillColor=none;align=center;verticalAlign=middle;whiteSpace=wrap;rounded=0;fontSize=24;" parent="1" vertex="1">
          <mxGeometry y="670" width="140" height="20" as="geometry" />
        </mxCell>
        <mxCell id="CBPnCcmBKnOUTYON7uXT-37" style="edgeStyle=orthogonalEdgeStyle;curved=1;rounded=0;orthogonalLoop=1;jettySize=auto;html=1;entryX=0.5;entryY=0;entryDx=0;entryDy=0;entryPerimeter=0;fontSize=12;dashed=1;" parent="1" source="CBPnCcmBKnOUTYON7uXT-38" target="CBPnCcmBKnOUTYON7uXT-35" edge="1">
          <mxGeometry relative="1" as="geometry" />
        </mxCell>
        <mxCell id="CBPnCcmBKnOUTYON7uXT-38" value="" style="aspect=fixed;pointerEvents=1;shadow=0;dashed=0;html=1;strokeColor=none;labelPosition=center;verticalLabelPosition=bottom;verticalAlign=top;align=center;shape=mxgraph.mscae.enterprise.firewall;fillColor=#666666;" parent="1" vertex="1">
          <mxGeometry x="215" y="750" width="50" height="44" as="geometry" />
        </mxCell>
        <mxCell id="CBPnCcmBKnOUTYON7uXT-39" value="https://aloha-c.walmartmobile.cn/" style="text;html=1;strokeColor=none;fillColor=none;align=center;verticalAlign=middle;whiteSpace=wrap;rounded=0;" parent="1" vertex="1">
          <mxGeometry x="300" y="768" width="190" height="8" as="geometry" />
        </mxCell>
        <mxCell id="CBPnCcmBKnOUTYON7uXT-40" value="" style="shape=image;html=1;verticalAlign=top;verticalLabelPosition=bottom;labelBackgroundColor=#ffffff;imageAspect=0;aspect=fixed;image=https://cdn1.iconfinder.com/data/icons/ios-11-glyphs/30/print-128.png;fillColor=#666666;fontSize=24;" parent="1" vertex="1">
          <mxGeometry x="708" y="1031" width="64" height="64" as="geometry" />
        </mxCell>
        <mxCell id="CBPnCcmBKnOUTYON7uXT-43" style="edgeStyle=orthogonalEdgeStyle;curved=1;rounded=0;orthogonalLoop=1;jettySize=auto;html=1;entryX=0.5;entryY=0;entryDx=0;entryDy=0;entryPerimeter=0;dashed=1;fontSize=12;" parent="1" source="CBPnCcmBKnOUTYON7uXT-44" target="CBPnCcmBKnOUTYON7uXT-38" edge="1">
          <mxGeometry relative="1" as="geometry">
            <Array as="points">
              <mxPoint x="740" y="730" />
              <mxPoint x="240" y="730" />
            </Array>
          </mxGeometry>
        </mxCell>
        <mxCell id="CBPnCcmBKnOUTYON7uXT-47" style="edgeStyle=orthogonalEdgeStyle;curved=1;rounded=0;orthogonalLoop=1;jettySize=auto;html=1;dashed=1;fontSize=12;" parent="1" source="CBPnCcmBKnOUTYON7uXT-44" target="CBPnCcmBKnOUTYON7uXT-40" edge="1">
          <mxGeometry relative="1" as="geometry">
            <Array as="points">
              <mxPoint x="740" y="980" />
              <mxPoint x="740" y="980" />
            </Array>
          </mxGeometry>
        </mxCell>
        <mxCell id="CBPnCcmBKnOUTYON7uXT-44" value="OFS" style="pointerEvents=1;shadow=0;dashed=0;html=1;strokeColor=none;fillColor=#505050;labelPosition=center;verticalLabelPosition=bottom;verticalAlign=top;outlineConnect=0;align=center;shape=mxgraph.office.devices.cell_phone_android_proportional;fontSize=12;" parent="1" vertex="1">
          <mxGeometry x="724.5" y="902" width="31" height="47" as="geometry" />
        </mxCell>
        <mxCell id="CBPnCcmBKnOUTYON7uXT-45" value="Cloud" style="text;html=1;strokeColor=none;fillColor=none;align=center;verticalAlign=middle;whiteSpace=wrap;rounded=0;fontSize=12;" parent="1" vertex="1">
          <mxGeometry x="60" y="777" width="40" height="20" as="geometry" />
        </mxCell>
        <mxCell id="CBPnCcmBKnOUTYON7uXT-46" value="Store" style="text;html=1;strokeColor=none;fillColor=none;align=center;verticalAlign=middle;whiteSpace=wrap;rounded=0;fontSize=12;" parent="1" vertex="1">
          <mxGeometry x="810" y="768" width="40" height="20" as="geometry" />
        </mxCell>
        <mxCell id="CBPnCcmBKnOUTYON7uXT-53" value="" style="html=1;verticalLabelPosition=bottom;align=center;labelBackgroundColor=#ffffff;verticalAlign=top;strokeWidth=2;strokeColor=#0080F0;shadow=0;dashed=0;shape=mxgraph.ios7.icons.bluetooth;pointerEvents=1;fillColor=none;fontSize=12;" parent="1" vertex="1">
          <mxGeometry x="732.5" y="980" width="15" height="28.799999999999997" as="geometry" />
        </mxCell>
        <mxCell id="vdlDRStcDqsxnTNTjLSA-3" style="edgeStyle=orthogonalEdgeStyle;curved=1;rounded=0;orthogonalLoop=1;jettySize=auto;html=1;dashed=1;fontSize=12;" edge="1" parent="1" source="vdlDRStcDqsxnTNTjLSA-2">
          <mxGeometry relative="1" as="geometry">
            <mxPoint x="240" y="220" as="targetPoint" />
          </mxGeometry>
        </mxCell>
        <mxCell id="vdlDRStcDqsxnTNTjLSA-2" value="JDDJ.COM&lt;br&gt;WMDJ MINI" style="ellipse;shape=cloud;whiteSpace=wrap;html=1;fillColor=none;fontSize=12;" vertex="1" parent="1">
          <mxGeometry x="360" y="20" width="120" height="80" as="geometry" />
        </mxCell>
      </root>
    </mxGraphModel>
  </diagram>
</mxfile>
